<svg xmlns="http://www.w3.org/2000/svg" width="60" height="60" viewBox="0 0 60 60">
  <g id="Centro_de_ayuda_-_informacion" data-name="Centro de ayuda - informacion" transform="translate(-0.178 -0.178)">
    <rect id="Rectángulo_241" data-name="Rectángulo 241" width="60" height="60" transform="translate(0.178 0.178)" fill="none"/>
    <g id="Grupo_104" data-name="Grupo 104" transform="translate(12.939 13.038)">
      <ellipse id="Elipse_43" data-name="Elipse 43" cx="16.64" cy="16.686" rx="16.64" ry="16.686" transform="translate(1 0.908)" fill="#fff"/>
      <path id="Trazado_209" data-name="Trazado 209" d="M18.35,35.97A17.6,17.6,0,1,1,35.9,18.373,17.6,17.6,0,0,1,18.35,35.97Zm0-33.371A15.776,15.776,0,1,0,34.126,18.374,15.776,15.776,0,0,0,18.35,2.6Z" transform="translate(-0.712 -0.779)"/>
    </g>
    <path id="Trazado_210" data-name="Trazado 210" d="M.262,30.338c0-.606-.144-1.213-.144-1.972A27.373,27.373,0,0,1,26.281,0V1.668a25.57,25.57,0,0,0-24.355,26.7c0,.606.144,1.213.144,1.821Z" transform="translate(2.785 2.874)" fill="#bcc0c4"/>
    <path id="Trazado_211" data-name="Trazado 211" d="M41.394,39.4l-1.513-.759a25.69,25.69,0,0,0-12.4-35.344l.753-1.516A27.113,27.113,0,0,1,44.57,25.745,27.448,27.448,0,0,1,41.394,39.4Z" transform="translate(12.783 3.522)" fill="#bcc0c4"/>
    <path id="Trazado_212" data-name="Trazado 212" d="M26.2,43.652A27.409,27.409,0,0,1,3.211,30.91L4.723,30A25.148,25.148,0,0,0,27.262,41.831a24.782,24.782,0,0,0,14.067-5.005l1.059,1.365A27.984,27.984,0,0,1,27.412,43.5a3.749,3.749,0,0,1-1.209.152Z" transform="translate(3.921 13.83)" fill="#bcc0c4"/>
    <path id="Trazado_213" data-name="Trazado 213" d="M11.856,41.613a7.582,7.582,0,0,1-1.21-1.062A22.494,22.494,0,0,1,9.436,9L10.8,10.213a20.658,20.658,0,0,0,1.059,29.125c.3.3.756.606,1.059.91Z" transform="translate(4.047 6.162)" fill="#bcc0c4"/>
    <g id="Grupo_105" data-name="Grupo 105" transform="translate(24.982 26.992)">
      <path id="Trazado_214" data-name="Trazado 214" d="M1.33,13.56V11.74s1.513-.456,2.723-.91V3.4L1.33,2.486V.667h6.5V10.83c1.21.456,2.723.91,2.723.91V13.56Z" transform="translate(-0.422 0.244)" fill="#ef3829"/>
      <path id="Trazado_215" data-name="Trazado 215" d="M11.707,14.714H.665V11.377l2.723-.911V4.248L.665,3.337V0H8.833V10.466l2.723.91v3.337ZM2.48,13.046h7.563v-.3l-2.717-.911V1.668H2.631v.3l2.723.91v8.647l-2.723.91v.606Z" transform="translate(-0.665)"/>
    </g>
    <g id="Grupo_106" data-name="Grupo 106" transform="translate(26.952 18.652)">
      <ellipse id="Elipse_44" data-name="Elipse 44" cx="2.723" cy="2.73" rx="2.723" ry="2.73" transform="translate(0.904 0.91)" fill="#ef3829"/>
      <path id="Trazado_216" data-name="Trazado 216" d="M3.627,7.726A3.686,3.686,0,0,1,0,4.086,3.686,3.686,0,0,1,3.627.444a3.686,3.686,0,0,1,3.63,3.642,3.686,3.686,0,0,1-3.63,3.64Zm0-5.613A2.012,2.012,0,0,0,1.66,4.086,2.012,2.012,0,0,0,3.627,6.057,2.012,2.012,0,0,0,5.593,4.086,2.012,2.012,0,0,0,3.627,2.114Z" transform="translate(0 -0.444)"/>
    </g>
  </g>
</svg>
